<svg xmlns="http://www.w3.org/2000/svg" xmlns:xlink="http://www.w3.org/1999/xlink" width="1080" zoomAndPan="magnify" viewBox="0 0 810 809.999993" height="1080" preserveAspectRatio="xMidYMid meet" version="1.0"><defs><g/></defs><g fill="#ffffff" fill-opacity="1"><g transform="translate(0.0000035, 559.310538)"><g><path d="M 34.378906 0 L 60.003906 0 L 60.003906 -195.640625 L 129.382812 -251.269531 L 336.273438 0 L 369.402344 0 L 148.761719 -267.519531 L 364.402344 -438.15625 L 324.398438 -438.15625 L 60.628906 -228.140625 L 60.003906 -228.140625 L 60.003906 -438.15625 L 34.378906 -438.15625 Z M 34.378906 0 "/></g></g></g><g fill="#ffffff" fill-opacity="1"><g transform="translate(372.518858, 559.310538)"><g><path d="M 28.128906 131.261719 L 53.128906 131.261719 L 53.128906 -80.632812 L 53.753906 -80.632812 C 80.007812 -24.375 143.136719 12.5 223.140625 12.5 C 336.273438 12.5 417.53125 -58.128906 417.53125 -156.261719 C 417.53125 -255.019531 336.273438 -325.648438 223.140625 -325.648438 C 143.136719 -325.648438 79.382812 -288.773438 53.128906 -231.890625 L 52.503906 -231.890625 L 51.878906 -313.148438 L 28.128906 -313.148438 Z M 222.515625 -11.25 C 123.757812 -11.25 52.503906 -72.503906 52.503906 -156.261719 C 52.503906 -240.644531 123.757812 -301.898438 222.515625 -301.898438 C 321.273438 -301.898438 392.53125 -240.644531 392.53125 -156.261719 C 392.53125 -72.503906 321.273438 -11.25 222.515625 -11.25 Z M 222.515625 -11.25 "/></g></g></g></svg>