<svg xmlns="http://www.w3.org/2000/svg" xmlns:xlink="http://www.w3.org/1999/xlink" width="1080" zoomAndPan="magnify" viewBox="0 0 810 809.999993" height="1080" preserveAspectRatio="xMidYMid meet" version="1.0"><defs><g/></defs><rect x="-81" width="972" fill="#ffffff" y="-80.999999" height="971.999992" fill-opacity="1"/><rect x="-81" width="972" fill="#ffffff" y="-80.999999" height="971.999992" fill-opacity="1"/><rect x="-81" width="972" fill="#000000" y="-80.999999" height="971.999992" fill-opacity="1"/><g fill="#ffffff" fill-opacity="1"><g transform="translate(1.045307, 443.722997)"><g><path d="M 130.824219 -25.628906 L 139.367188 -50.460938 L 32.304688 -91.308594 L 139.367188 -131.890625 L 131.089844 -156.988281 L 12.28125 -108.929688 L 12.28125 -73.421875 Z M 130.824219 -25.628906 "/></g></g></g><g fill="#ffffff" fill-opacity="1"><g transform="translate(152.692547, 443.722997)"><g><path d="M 14.417969 0 L 49.660156 0 L 49.660156 -65.679688 L 76.890625 -89.707031 L 146.839844 0 L 190.359375 0 L 101.453125 -112.402344 L 187.421875 -189.292969 L 142.035156 -189.292969 L 49.925781 -105.726562 L 49.660156 -105.992188 L 49.660156 -189.292969 L 14.417969 -189.292969 Z M 14.417969 0 "/></g></g></g><g fill="#ffffff" fill-opacity="1"><g transform="translate(344.120482, 443.722997)"><g><path d="M 11.480469 56.066406 L 43.25 56.066406 L 43.25 -28.300781 L 43.519531 -28.300781 C 54.730469 -7.742188 78.761719 4.804688 107.863281 4.804688 C 153.785156 4.804688 185.820312 -24.5625 185.820312 -67.8125 C 185.820312 -111.066406 153.785156 -140.699219 107.59375 -140.699219 C 78.226562 -140.699219 53.929688 -127.886719 42.984375 -107.0625 L 42.71875 -107.0625 L 38.710938 -135.894531 L 11.480469 -135.894531 Z M 97.984375 -21.09375 C 65.144531 -21.09375 42.183594 -40.582031 42.183594 -67.8125 C 42.183594 -95.046875 65.144531 -114.535156 97.984375 -114.535156 C 130.824219 -114.535156 153.785156 -95.3125 153.785156 -67.8125 C 153.785156 -40.582031 131.089844 -21.09375 97.984375 -21.09375 Z M 97.984375 -21.09375 "/></g></g></g><g fill="#ffffff" fill-opacity="1"><g transform="translate(537.15035, 443.722997)"><g><path d="M 10.945312 64.078125 L 118.273438 -188.222656 L 108.929688 -192.230469 L 1.601562 60.070312 Z M 10.945312 64.078125 "/></g></g></g><g fill="#ffffff" fill-opacity="1"><g transform="translate(657.293441, 443.722997)"><g><path d="M 20.824219 -156.988281 L 12.28125 -131.890625 L 119.609375 -91.308594 L 12.28125 -50.460938 L 20.824219 -25.628906 L 139.367188 -73.421875 L 139.367188 -109.195312 Z M 20.824219 -156.988281 "/></g></g></g></svg>