<?xml version="1.0" standalone="no"?>
<!DOCTYPE svg PUBLIC "-//W3C//DTD SVG 1.0//EN" "http://www.w3.org/TR/2001/REC-SVG-20010904/DTD/svg10.dtd">
<svg xmlns="http://www.w3.org/2000/svg" xmlns:xlink="http://www.w3.org/1999/xlink" id="body_1" width="97" height="97">

<g transform="matrix(0.119753085 0 0 0.119753085 0 0)">
	<g>
		<g transform="matrix(1 0 0 1 3.5E-06 559.31055)">
			<g>
                <path d="M34.378906 0L60.003906 0L60.003906 -195.64062L129.38281 -251.26953L336.27344 0L369.40234 0L148.76172 -267.51953L364.40234 -438.15625L324.39844 -438.15625L60.628906 -228.14062L60.003906 -228.14062L60.003906 -438.15625L34.378906 -438.15625L34.378906 0z" stroke="none" fill="#FFFFFF" fill-rule="nonzero" />
			</g>
		</g>
	</g>
	<g>
		<g transform="matrix(1 0 0 1 372.51886 559.31055)">
			<g>
                <path d="M28.128906 131.26172L53.128906 131.26172L53.128906 -80.63281L53.753906 -80.63281C 80.00781 -24.375 143.13672 12.5 223.14062 12.5C 336.27344 12.5 417.53125 -58.128906 417.53125 -156.26172C 417.53125 -255.01953 336.27344 -325.64844 223.14062 -325.64844C 143.13672 -325.64844 79.38281 -288.77344 53.128906 -231.89062L53.128906 -231.89062L52.503906 -231.89062L51.878906 -313.14844L28.128906 -313.14844L28.128906 131.26172zM222.51562 -11.25C 123.75781 -11.25 52.503906 -72.50391 52.503906 -156.26172C 52.503906 -240.64453 123.75781 -301.89844 222.51562 -301.89844C 321.27344 -301.89844 392.53125 -240.64453 392.53125 -156.26172C 392.53125 -72.50391 321.27344 -11.25 222.51562 -11.25z" stroke="none" fill="#FFFFFF" fill-rule="nonzero" />
			</g>
		</g>
	</g>
</g>
</svg>